<svg width="1336" height="500" viewBox="0 0 1336 500" fill="none" xmlns="http://www.w3.org/2000/svg">
<path d="M691.864 192.216V218.52H656.152V327H623.32V218.52H587.608V192.216H691.864ZM757.11 328.536C746.614 328.536 737.142 326.296 728.694 321.816C720.374 317.336 713.782 310.936 708.918 302.616C704.182 294.296 701.814 284.568 701.814 273.432C701.814 262.424 704.246 252.76 709.109 244.44C713.974 235.992 720.63 229.528 729.078 225.048C737.526 220.568 746.998 218.328 757.494 218.328C767.99 218.328 777.462 220.568 785.91 225.048C794.358 229.528 801.014 235.992 805.878 244.44C810.742 252.76 813.174 262.424 813.174 273.432C813.174 284.44 810.678 294.168 805.686 302.616C800.822 310.936 794.102 317.336 785.526 321.816C777.078 326.296 767.606 328.536 757.11 328.536ZM757.11 300.12C763.382 300.12 768.694 297.816 773.046 293.208C777.526 288.6 779.766 282.008 779.766 273.432C779.766 264.856 777.59 258.264 773.238 253.656C769.014 249.048 763.766 246.744 757.494 246.744C751.094 246.744 745.782 249.048 741.558 253.656C737.334 258.136 735.222 264.728 735.222 273.432C735.222 282.008 737.27 288.6 741.366 293.208C745.59 297.816 750.838 300.12 757.11 300.12ZM936.384 219.864V327H903.552V312.408C900.224 317.144 895.68 320.984 889.92 323.928C884.288 326.744 878.016 328.152 871.104 328.152C862.912 328.152 855.68 326.36 849.408 322.776C843.136 319.064 838.272 313.752 834.816 306.84C831.36 299.928 829.632 291.8 829.632 282.456V219.864H862.272V278.04C862.272 285.208 864.128 290.776 867.84 294.744C871.552 298.712 876.544 300.696 882.816 300.696C889.216 300.696 894.272 298.712 897.984 294.744C901.696 290.776 903.552 285.208 903.552 278.04V219.864H936.384ZM1000.67 218.328C1008.22 218.328 1014.81 219.864 1020.45 222.936C1026.21 226.008 1030.62 230.04 1033.69 235.032V219.864H1066.53V326.808C1066.53 336.664 1064.54 345.56 1060.57 353.496C1056.73 361.56 1050.78 367.96 1042.72 372.696C1034.78 377.432 1024.86 379.8 1012.96 379.8C997.087 379.8 984.223 376.024 974.367 368.472C964.511 361.048 958.879 350.936 957.471 338.136H989.919C990.943 342.232 993.375 345.432 997.215 347.736C1001.05 350.168 1005.79 351.384 1011.42 351.384C1018.21 351.384 1023.58 349.4 1027.55 345.432C1031.65 341.592 1033.69 335.384 1033.69 326.808V311.64C1030.49 316.632 1026.08 320.728 1020.45 323.928C1014.81 327 1008.22 328.536 1000.67 328.536C991.839 328.536 983.839 326.296 976.671 321.816C969.503 317.208 963.807 310.744 959.583 302.424C955.487 293.976 953.439 284.248 953.439 273.24C953.439 262.232 955.487 252.568 959.583 244.248C963.807 235.928 969.503 229.528 976.671 225.048C983.839 220.568 991.839 218.328 1000.67 218.328ZM1033.69 273.432C1033.69 265.24 1031.39 258.776 1026.78 254.04C1022.3 249.304 1016.8 246.936 1010.27 246.936C1003.74 246.936 998.175 249.304 993.567 254.04C989.087 258.648 986.847 265.048 986.847 273.24C986.847 281.432 989.087 287.96 993.567 292.824C998.175 297.56 1003.74 299.928 1010.27 299.928C1016.8 299.928 1022.3 297.56 1026.78 292.824C1031.39 288.088 1033.69 281.624 1033.69 273.432ZM1123.11 237.72C1126.95 231.832 1131.75 227.224 1137.51 223.896C1143.27 220.44 1149.67 218.712 1156.71 218.712V253.464H1147.69C1139.5 253.464 1133.35 255.256 1129.26 258.84C1125.16 262.296 1123.11 268.44 1123.11 277.272V327H1090.28V219.864H1123.11V237.72ZM1273.4 271.704C1273.4 274.776 1273.2 277.976 1272.82 281.304H1198.52C1199.03 287.96 1201.14 293.08 1204.85 296.664C1208.69 300.12 1213.36 301.848 1218.87 301.848C1227.06 301.848 1232.76 298.392 1235.96 291.48H1270.9C1269.11 298.52 1265.84 304.856 1261.11 310.488C1256.5 316.12 1250.68 320.536 1243.64 323.736C1236.6 326.936 1228.72 328.536 1220.02 328.536C1209.52 328.536 1200.18 326.296 1191.99 321.816C1183.8 317.336 1177.4 310.936 1172.79 302.616C1168.18 294.296 1165.88 284.568 1165.88 273.432C1165.88 262.296 1168.12 252.568 1172.6 244.248C1177.2 235.928 1183.6 229.528 1191.8 225.048C1199.99 220.568 1209.4 218.328 1220.02 218.328C1230.39 218.328 1239.6 220.504 1247.67 224.856C1255.73 229.208 1262 235.416 1266.48 243.48C1271.09 251.544 1273.4 260.952 1273.4 271.704ZM1239.8 263.064C1239.8 257.432 1237.88 252.952 1234.04 249.624C1230.2 246.296 1225.4 244.632 1219.64 244.632C1214.13 244.632 1209.46 246.232 1205.62 249.432C1201.91 252.632 1199.6 257.176 1198.71 263.064H1239.8ZM1323.55 184.92V327H1290.72V184.92H1323.55Z" fill="white"/>
<rect x="93.75" y="94" width="312.5" height="62.5" rx="16" fill="white"/>
<rect x="281.25" y="94" width="312.5" height="62.5" rx="16" transform="rotate(90 281.25 94)" fill="white"/>
<rect x="187.5" y="187.75" width="187.5" height="62.5" rx="24" transform="rotate(90 187.5 187.75)" fill="white"/>
<rect x="187.5" y="250.25" width="187.5" height="62.5" rx="24" transform="rotate(-180 187.5 250.25)" fill="white"/>
<rect x="312.5" y="187.75" width="187.5" height="62.5" rx="24" fill="white"/>
<rect x="375" y="187.75" width="187.5" height="62.5" rx="24" transform="rotate(90 375 187.75)" fill="white"/>
</svg>
