<?xml version="1.0" standalone="no"?>
<!DOCTYPE svg PUBLIC "-//W3C//DTD SVG 20010904//EN"
 "http://www.w3.org/TR/2001/REC-SVG-20010904/DTD/svg10.dtd">
<svg version="1.0" xmlns="http://www.w3.org/2000/svg"
 width="500.000000pt" height="500.000000pt" viewBox="0 0 500.000000 500.000000"
 preserveAspectRatio="xMidYMid meet">
<metadata>
Created by potrace 1.14, written by Peter Selinger 2001-2017
</metadata>
<g transform="translate(0.000000,500.000000) scale(0.100000,-0.100000)"
fill="#000000" stroke="none">
<path d="M827 4984 c-389 -71 -691 -352 -799 -744 l-23 -85 0 -1655 0 -1655
27 -99 c98 -354 358 -614 715 -714 l98 -27 1655 0 1655 0 99 27 c354 98 614
358 714 715 l27 98 0 1655 0 1655 -28 100 c-67 246 -217 449 -433 588 -88 57
-164 91 -279 125 l-90 27 -1630 2 c-1368 1 -1642 -1 -1708 -13z m2997 -1097
c72 -40 81 -68 81 -257 0 -182 -7 -208 -68 -254 -28 -21 -38 -21 -543 -24
l-514 -3 0 -1065 c0 -1026 -1 -1066 -19 -1102 -11 -22 -35 -46 -59 -60 -37
-20 -52 -22 -204 -22 -155 0 -167 1 -199 23 -18 12 -44 38 -56 56 l-23 34 0
1068 0 1068 -512 3 -513 3 -33 23 c-61 44 -67 68 -67 253 0 162 1 166 26 205
53 80 -60 74 1379 74 l1285 0 39 -23z m-2074 -828 c66 -14 127 -62 159 -124
l26 -49 0 -666 c0 -662 0 -665 -22 -705 -51 -95 -126 -135 -258 -135 -105 0
-172 25 -219 81 -57 67 -56 60 -56 569 l0 470 -445 0 c-283 0 -462 4 -495 11
-69 15 -129 62 -163 129 -27 51 -28 61 -25 155 3 84 8 107 28 144 32 57 87
101 147 117 63 17 1245 20 1323 3z m2860 -15 c55 -25 102 -77 125 -138 26 -68
18 -215 -15 -276 -33 -58 -96 -105 -160 -119 -33 -7 -212 -11 -495 -11 l-445
0 0 -470 c0 -509 1 -502 -56 -569 -46 -55 -114 -81 -213 -81 -46 0 -101 5
-122 12 -51 15 -114 69 -142 122 -22 41 -22 42 -25 681 -2 443 0 654 8 685 13
54 52 113 94 143 63 45 84 46 761 44 625 -2 641 -2 685 -23z"/>
</g>
</svg>
